<?xml version="1.0" encoding="UTF-8" standalone="no"?>
<svg
   viewBox="0 0 85264 85264"
   version="1.1"
   id="svg29"
   xml:space="preserve"
   width="85264"
   height="85264"
   xmlns="http://www.w3.org/2000/svg"
   xmlns:svg="http://www.w3.org/2000/svg"><defs
     id="defs1"><style
       id="style1">.cls-1{fill:#3070b3;stroke-width:3px;}.cls-1,.cls-5{stroke:#3070b3;}.cls-1,.cls-3{stroke-linecap:round;}.cls-1,.cls-2,.cls-3,.cls-4,.cls-5,.cls-6,.cls-7{stroke-miterlimit:10;}.cls-2,.cls-3,.cls-5{fill:none;}.cls-2,.cls-3,.cls-4,.cls-6,.cls-7{stroke:#fff;}.cls-2,.cls-3,.cls-4,.cls-5{stroke-width:5px;}.cls-4,.cls-6,.cls-7{fill:#fff;}.cls-6{stroke-width:6px;}.cls-7{stroke-width:7px;}</style></defs><g
     id="Layer_2"
     data-name="Layer 2"><circle
       class="cls-1"
       cx="146"
       cy="146"
       r="144.5"
       id="circle1"
       style="fill:#2f6eb0;fill-opacity:1;stroke:#3070b3;stroke-opacity:1" /><polyline
       class="cls-2"
       points="237.65 224.34 199.5 194.5 144 183.55"
       id="polyline1" /><line
       class="cls-2"
       x1="240.28999"
       y1="227.11"
       x2="237.64999"
       y2="224.34"
       id="line1" /><line
       class="cls-2"
       x1="169.5"
       y1="214.5"
       x2="237.21001"
       y2="225.3"
       id="line2" /><line
       class="cls-2"
       x1="144"
       y1="183.55"
       x2="169.5"
       y2="216.5"
       id="line3" /><line
       class="cls-2"
       x1="237.78999"
       y1="224.3"
       x2="238.5"
       y2="226.5"
       id="line4" /><line
       class="cls-2"
       x1="218.72"
       y1="165.13"
       x2="237.78999"
       y2="224.3"
       id="line5" /><line
       class="cls-2"
       x1="200.5"
       y1="194.5"
       x2="218.5"
       y2="165.5"
       id="line6" /><line
       class="cls-2"
       x1="218.5"
       y1="165.5"
       x2="262.82999"
       y2="180.49001"
       id="line7" /><line
       class="cls-2"
       x1="236.5"
       y1="142.5"
       x2="218.5"
       y2="165.5"
       id="line8" /><line
       class="cls-2"
       x1="192"
       y1="152"
       x2="237.5"
       y2="140.5"
       id="line9" /><line
       class="cls-2"
       x1="263.5"
       y1="180.5"
       x2="236.64"
       y2="142.91"
       id="line10" /><polyline
       class="cls-2"
       points="169.5 214.5 145.5 232.5 186.5 262.5"
       id="polyline10" /><line
       class="cls-2"
       x1="186.5"
       y1="262.5"
       x2="169.5"
       y2="214.5"
       id="line11" /><line
       class="cls-3"
       x1="87.5"
       y1="207.5"
       x2="119.5"
       y2="267.5"
       id="line12" /><line
       class="cls-3"
       x1="57.5"
       y1="234.5"
       x2="87.5"
       y2="207.5"
       id="line13" /><polyline
       class="cls-2"
       points="89.5 209.5 144.5 234.35 122.33 266.5"
       id="polyline13" /><polyline
       class="cls-3"
       points="221.32 164.85 190.5 152.5 147 182.55 89.5 206.5"
       id="polyline14" /><line
       class="cls-2"
       x1="219"
       y1="164.5"
       x2="218.5"
       y2="165.5"
       id="line14" /><line
       class="cls-2"
       x1="90.5"
       y1="208.5"
       x2="168.5"
       y2="215.5"
       id="line15" /><polyline
       class="cls-3"
       points="189.5 151.21 167.66 135.79 154.71 103.39 123.23 75.08 84.83 119.9 36 205"
       id="polyline15" /><path
       class="cls-3"
       d="M 35.71,205.88 A 120.3,120.3 0 0 1 21.5,149 C 21.5,81.35 77.24,26.5 146,26.5 a 125.12,125.12 0 0 1 87.81,35.66"
       id="path15" /><path
       class="cls-3"
       d="m 265.5,174.5 c -13,56.7 -66.25,97.69 -121.5,96 -34.9,-1.07 -66.54,-15.91 -86.5,-36"
       id="path16" /><path
       class="cls-3"
       d="m 262.72,108 c 4.63,13.22 5.79,25.91 5.78,40 a 118.47,118.47 0 0 1 -3,26.5"
       id="path17" /><polygon
       class="cls-4"
       points="212.42,63.24 235.16,43.23 248.83,81.69 "
       id="polygon17" /><line
       class="cls-3"
       x1="239.49001"
       y1="137.92999"
       x2="262.5"
       y2="108.5"
       id="line17" /><line
       class="cls-5"
       x1="235.64"
       y1="142.91"
       x2="239.49001"
       y2="137.92999"
       id="line18" /><circle
       class="cls-4"
       cx="144.5"
       cy="233.5"
       r="5.5"
       id="circle18" /><circle
       class="cls-4"
       cx="169.5"
       cy="216.5"
       r="5.5"
       id="circle19" /><circle
       class="cls-4"
       cx="200.5"
       cy="194.5"
       r="5.5"
       id="circle20" /><circle
       class="cls-4"
       cx="219"
       cy="165"
       r="5.5"
       id="circle21" /><path
       class="cls-4"
       d="m 232.54,147 a 5,5 0 0 1 -1.25,-4.12 l 4.26,0.49 3.47,-3.87 a 5,5 0 1 1 -6.48,7.5"
       id="path21" /><path
       class="cls-4"
       d="m 235.46,229.88 a 5.5,5.5 0 1 1 7.27,-7.69 z"
       id="path22" /><path
       class="cls-6"
       d="m 182,258.16 a 5.36,5.36 0 0 1 2.09,-1.66 5.49,5.49 0 0 1 7.28,2.73 l -10,4.55 a 5.5,5.5 0 0 1 0.64,-5.62"
       id="path23" /><path
       class="cls-6"
       d="m 124.89,267 a 5.5,5.5 0 0 0 -10.81,-2 z"
       id="path24" /><path
       class="cls-7"
       d="m 150.61,179.79 a 5.51,5.51 0 0 1 -2.33,7.42 c -0.51,0.26 -4.57,1.55 -6.92,-1.54"
       id="path25" /><path
       class="cls-6"
       d="M 94.52,204.46 A 5.53,5.53 0 0 1 96,208.2 c 0,3.2 -5.88,5.8 -6.3,5.8 a 6.42,6.42 0 0 1 -5.46,-2.89 l 5.27,-4.6 5.16,-1.7"
       id="path26" /><path
       class="cls-6"
       d="m 261.52,184.38 a 5.5003023,5.5003023 0 0 1 4.07,-10.22"
       id="path27" /><path
       class="cls-6"
       d="m 199.61,151 a 4.93,4.93 0 0 1 0.39,1.93 4.73,4.73 0 0 1 -4.68,4.78 4.68,4.68 0 0 1 -4.32,-2.92"
       id="path28" /><path
       class="cls-6"
       d="m 240,138 -4,5"
       id="path29" /></g></svg>
