<?xml version="1.0" encoding="UTF-8" standalone="no"?>
<svg
   viewBox="0 0 83636.637 84972.25"
   version="1.1"
   id="svg26"
   xml:space="preserve"
   width="83636.641"
   height="84972.25"
   xmlns="http://www.w3.org/2000/svg"
   xmlns:svg="http://www.w3.org/2000/svg"><defs
     id="defs1"><style
       id="style1">.cls-1{fill:#fff;stroke:#fff;stroke-width:3px;}.cls-1,.cls-3{stroke-linecap:round;}.cls-1,.cls-2,.cls-3,.cls-4,.cls-5,.cls-6{stroke-miterlimit:10;}.cls-2,.cls-3{fill:none;}.cls-2,.cls-3,.cls-4,.cls-5,.cls-6{stroke:#3070b3;}.cls-2,.cls-3,.cls-4{stroke-width:5px;}.cls-4,.cls-5,.cls-6{fill:#3070b3;}.cls-5{stroke-width:6px;}.cls-6{stroke-width:7px;}</style></defs><g
     id="Layer_2"
     data-name="Layer 2"><g
       id="Layer_5"
       data-name="Layer 5"><polyline
         class="cls-2"
         points="235.84 224.84 197.7 195 142.2 184.05"
         id="polyline1"
         style="fill:none;fill-opacity:1;stroke:#3070b2;stroke-opacity:1" /><line
         class="cls-2"
         x1="238.48"
         y1="227.61"
         x2="235.84"
         y2="224.84"
         id="line1"
         style="fill:none;fill-opacity:1;stroke:#3070b2;stroke-opacity:1" /><line
         class="cls-2"
         x1="167.7"
         y1="215"
         x2="235.39999"
         y2="225.8"
         id="line2"
         style="fill:none;fill-opacity:1;stroke:#3070b2;stroke-opacity:1" /><line
         class="cls-2"
         x1="142.2"
         y1="184.05"
         x2="167.7"
         y2="217"
         id="line3"
         style="fill:none;fill-opacity:1;stroke:#3070b2;stroke-opacity:1" /><line
         class="cls-2"
         x1="235.99001"
         y1="224.8"
         x2="236.7"
         y2="227"
         id="line4"
         style="fill:none;fill-opacity:1;stroke:#3070b2;stroke-opacity:1" /><line
         class="cls-2"
         x1="216.91"
         y1="165.63"
         x2="235.99001"
         y2="224.8"
         id="line5"
         style="fill:none;fill-opacity:1;stroke:#3070b2;stroke-opacity:1" /><line
         class="cls-2"
         x1="198.7"
         y1="195"
         x2="216.7"
         y2="166"
         id="line6"
         style="fill:none;fill-opacity:1;stroke:#3070b2;stroke-opacity:1" /><polyline
         class="cls-2"
         points="234.7 143 216.7 166 261.02 180.99"
         id="polyline6"
         style="fill:none;fill-opacity:1;stroke:#3070b2;stroke-opacity:1" /><line
         class="cls-2"
         x1="190.2"
         y1="152.5"
         x2="235.7"
         y2="141"
         id="line7"
         style="fill:none;fill-opacity:1;stroke:#3070b2;stroke-opacity:1" /><line
         class="cls-2"
         x1="261.70001"
         y1="181"
         x2="234.83"
         y2="143.41"
         id="line8"
         style="fill:none;fill-opacity:1;stroke:#3070b2;stroke-opacity:1" /><polyline
         class="cls-2"
         points="167.7 215 143.7 233 184.7 263"
         id="polyline8"
         style="fill:none;fill-opacity:1;stroke:#3070b2;stroke-opacity:1" /><line
         class="cls-2"
         x1="184.7"
         y1="263"
         x2="167.7"
         y2="215"
         id="line9"
         style="fill:none;fill-opacity:1;stroke:#3070b2;stroke-opacity:1" /><line
         class="cls-3"
         x1="85.699997"
         y1="208"
         x2="117.7"
         y2="268"
         id="line10"
         style="fill:none;fill-opacity:1;stroke:#3070b2;stroke-opacity:1" /><line
         class="cls-3"
         x1="55.700001"
         y1="235"
         x2="85.699997"
         y2="208"
         id="line11"
         style="fill:none;fill-opacity:1;stroke:#3070b2;stroke-opacity:1" /><polyline
         class="cls-2"
         points="87.7 210 142.7 234.85 120.53 267"
         id="polyline11"
         style="fill:none;fill-opacity:1;stroke:#3070b2;stroke-opacity:1" /><polyline
         class="cls-3"
         points="219.52 165.35 188.7 153 145.2 183.05 87.7 207"
         id="polyline12"
         style="fill:none;fill-opacity:1;stroke:#3070b2;stroke-opacity:1" /><line
         class="cls-2"
         x1="217.2"
         y1="165"
         x2="216.7"
         y2="166"
         id="line12"
         style="fill:none;fill-opacity:1;stroke:#3070b2;stroke-opacity:1" /><line
         class="cls-2"
         x1="88.699997"
         y1="209"
         x2="166.7"
         y2="216"
         id="line13"
         style="fill:none;fill-opacity:1;stroke:#3070b2;stroke-opacity:1" /><polyline
         class="cls-3"
         points="187.7 151.71 165.86 136.29 152.9 103.89 121.43 75.58 83.02 120.4 34.2 205.5"
         id="polyline13"
         style="fill:none;fill-opacity:1;stroke:#3070b2;stroke-opacity:1" /><path
         class="cls-3"
         d="M 33.9,206.38 A 120.41,120.41 0 0 1 19.7,149.5 C 19.7,81.85 75.44,27 144.2,27 A 125.14,125.14 0 0 1 232,62.66"
         id="path13"
         style="fill:none;fill-opacity:1;stroke:#3070b2;stroke-opacity:1" /><path
         class="cls-3"
         d="m 263.7,175 c -13,56.7 -66.25,97.69 -121.5,96 -34.9,-1.07 -66.55,-15.91 -86.5,-36"
         id="path14"
         style="fill:none;fill-opacity:1;stroke:#3070b2;stroke-opacity:1" /><path
         class="cls-3"
         d="m 260.91,108.51 c 4.64,13.22 5.79,25.91 5.79,40 a 119.05,119.05 0 0 1 -3,26.5"
         id="path15"
         style="fill:none;fill-opacity:1;stroke:#3070b2;stroke-opacity:1" /><polygon
         class="cls-4"
         points="233.36,43.73 247.02,82.19 210.61,63.74 "
         id="polygon15"
         style="fill:#3070b2;fill-opacity:1;stroke:#3070b2;stroke-opacity:1" /><line
         class="cls-3"
         x1="237.69"
         y1="138.42999"
         x2="260.70001"
         y2="109"
         id="line15"
         style="fill:none;fill-opacity:1;stroke:#3070b2;stroke-opacity:1" /><line
         class="cls-2"
         x1="233.83"
         y1="143.41"
         x2="237.69"
         y2="138.42999"
         id="line16"
         style="fill:none;fill-opacity:1;stroke:#3070b2;stroke-opacity:1" /><circle
         class="cls-4"
         cx="142.7"
         cy="234"
         r="5.5"
         id="circle16"
         style="fill:#3070b2;fill-opacity:1;stroke:#3070b2;stroke-opacity:1" /><circle
         class="cls-4"
         cx="167.7"
         cy="217"
         r="5.5"
         id="circle17"
         style="fill:#3070b2;fill-opacity:1;stroke:#3070b2;stroke-opacity:1" /><circle
         class="cls-4"
         cx="198.7"
         cy="195"
         r="5.5"
         id="circle18"
         style="fill:none;fill-opacity:1;stroke:#3070b2;stroke-opacity:1" /><circle
         class="cls-4"
         cx="217.2"
         cy="165.5"
         r="5.5"
         id="circle19"
         style="fill:none;fill-opacity:1;stroke:#3070b2;stroke-opacity:1" /><path
         class="cls-4"
         d="m 230.74,147.51 a 5,5 0 0 1 -1.25,-4.12 l 4.25,0.49 3.47,-3.87 a 5,5 0 1 1 -5.56,8.28 5.27,5.27 0 0 1 -0.91,-0.78"
         id="path19"
         style="fill:none;fill-opacity:1;stroke:#3070b2;stroke-opacity:1" /><path
         class="cls-4"
         d="m 233.65,230.38 a 5.5,5.5 0 1 1 7.27,-7.69 z"
         id="path20"
         style="fill:none;fill-opacity:1;stroke:#3070b2;stroke-opacity:1" /><path
         class="cls-5"
         d="m 180.22,258.66 a 5.29,5.29 0 0 1 2.09,-1.66 5.49,5.49 0 0 1 7.28,2.73 l -10,4.55 a 5.48,5.48 0 0 1 0.64,-5.62"
         id="path21"
         style="fill:none;fill-opacity:1;stroke:#3070b2;stroke-opacity:1" /><path
         class="cls-5"
         d="m 123.09,267.47 a 5.5,5.5 0 0 0 -10.81,-2 z"
         id="path22"
         style="fill:none;fill-opacity:1;stroke:#3070b2;stroke-opacity:1" /><path
         class="cls-6"
         d="m 148.8,180.29 a 5.49,5.49 0 0 1 -2.33,7.42 c -0.5,0.26 -4.57,1.55 -6.92,-1.54"
         id="path23"
         style="fill:none;fill-opacity:1;stroke:#3070b2;stroke-opacity:1" /><path
         class="cls-5"
         d="m 92.72,205 a 5.53,5.53 0 0 1 1.48,3.74 c 0,3.2 -5.88,5.8 -6.31,5.8 a 6.4,6.4 0 0 1 -5.45,-2.89 l 5.27,-4.6 5.16,-1.7"
         id="path24"
         style="fill:none;fill-opacity:1;stroke:#3070b2;stroke-opacity:1" /><path
         class="cls-5"
         d="m 259.71,184.88 a 5.5021541,5.5021541 0 0 1 4.08,-10.22"
         id="path25"
         style="fill:none;fill-opacity:1;stroke:#3070b2;stroke-opacity:1" /><path
         class="cls-5"
         d="m 197.8,151.5 a 4.93,4.93 0 0 1 0.4,1.93 4.74,4.74 0 0 1 -4.69,4.78 4.67,4.67 0 0 1 -4.31,-2.92"
         id="path26"
         style="fill:none;fill-opacity:1;stroke:#3070b2;stroke-opacity:1" /></g></g></svg>
